<svg xmlns="http://www.w3.org/2000/svg" width="512" height="512" viewBox="0 0 512 512">
  <defs>
    <radialGradient id="bg" cx="50%" cy="46%" r="72%">
      <stop offset="0%" stop-color="#182430"/>
      <stop offset="100%" stop-color="#070b10"/>
    </radialGradient>
    <linearGradient id="sweep" x1="0" y1="0" x2="1" y2="0">
      <stop offset="0%" stop-color="#7dffb0" stop-opacity=".55"/>
      <stop offset="100%" stop-color="#7dffb0" stop-opacity="0"/>
    </linearGradient>
  </defs>
  <rect width="512" height="512" fill="url(#bg)"/>
  <!-- secteur de balayage -->
  <path d="M 256 256 L 466 256 A 210 210 0 0 0 419 138 Z" fill="url(#sweep)"/>
  <!-- cercles du radar -->
  <g fill="none" stroke="#7dffb0">
    <circle cx="256" cy="256" r="204" stroke-width="9" opacity=".85"/>
    <circle cx="256" cy="256" r="144" stroke-width="8"  opacity=".6"/>
    <circle cx="256" cy="256" r="84"  stroke-width="7"  opacity=".4"/>
  </g>
  <!-- écho de pluie -->
  <circle cx="366" cy="120" r="24" fill="#7dffb0" opacity=".9"/>
  <!-- MOTO façon emoji, vue de profil, face à droite -->
  <g transform="translate(256,268) scale(3.6)" fill="none" stroke="#7dffb0" stroke-linecap="round">
    <circle cx="-28" cy="6" r="11" stroke-width="6"/>
    <circle cx="28"  cy="6" r="11" stroke-width="6"/>
    <g stroke-width="5">
      <path d="M -28 6 L 0 -2"/>
      <path d="M -16 -2 C -24 -12 -18 -18 -8 -16 C 0 -20 10 -20 16 -13"/>
      <path d="M 14 -12 L 28 6"/>
      <path d="M 16 -14 L 10 -19"/>
      <path d="M -22 12 C -10 15 2 14 10 10"/>
    </g>
  </g>
  <!-- aiguille de balayage -->
  <line x1="256" y1="256" x2="462" y2="256" stroke="#b6ffd6" stroke-width="10" stroke-linecap="round"/>
</svg>
